<svg width="256" height="256" viewBox="0 0 256 256" fill="none" xmlns="http://www.w3.org/2000/svg">
  <rect width="256" height="256" rx="72" fill="#120D18"/>
  <path d="M161.965 59C123.491 63.8804 94 96.7301 94 136C94 178.526 128.474 213 171 213C192.474 213 211.895 204.074 226 189.749C216.997 190.907 207.64 190.334 198.056 187.84C162.172 178.503 136 146.061 136 107.5C136 88.5383 142.341 71.0581 153.015 57.0901C155.927 57.5225 158.866 58.1601 161.965 59Z" fill="#F4D7DF"/>
  <path d="M100.794 112.179C89.3055 99.5968 69 107.646 69 125.602C69 152.152 105.857 172.808 127.5 189C149.143 172.808 186 152.152 186 125.602C186 107.646 165.695 99.5968 154.206 112.179L127.5 140.294L100.794 112.179Z" fill="#F29DB1"/>
</svg>
